# This file uses centimeters as units for non-parametric coordinates.

mtllib Hall.mtl
g default
v -25.000000 0.000000 25.000000
v 25.000000 0.000000 25.000000
v -25.000000 0.000000 20.000000
v 25.000000 0.000000 20.000000
v -25.000000 0.000000 -20.000000
v 25.000000 0.000000 -20.000000
v -25.000000 0.000000 -25.000000
v 25.000000 0.000000 -25.000000
v -25.000000 30.000000 25.000000
v -25.000000 30.000000 20.000000
v 25.000000 30.000000 25.000000
v 25.000000 30.000000 20.000000
v -25.000000 30.000000 -20.000000
v -25.000000 30.000000 -25.000000
v 25.000000 30.000000 -20.000000
v 25.000000 30.000000 -25.000000
vt 0.000000 0.000000
vt 1.000000 0.000000
vt 0.000000 0.100000
vt 1.000000 0.100000
vt 0.000000 0.900000
vt 1.000000 0.900000
vt 0.000000 1.000000
vt 1.000000 1.000000
vt 0.000000 0.000000
vt 0.000000 0.100000
vt 1.000000 0.000000
vt 1.000000 0.100000
vt 0.000000 0.900000
vt 0.000000 1.000000
vt 1.000000 0.900000
vt 1.000000 1.000000
vn 0.000000 1.000000 0.000000
vn 0.000000 1.000000 0.000000
vn 0.000000 1.000000 0.000000
vn 0.000000 1.000000 0.000000
vn 0.000000 1.000000 0.000000
vn 0.000000 1.000000 0.000000
vn 0.000000 1.000000 0.000000
vn 0.000000 1.000000 0.000000
vn 0.000000 1.000000 0.000000
vn 0.000000 1.000000 0.000000
vn 0.000000 1.000000 0.000000
vn 0.000000 1.000000 0.000000
vn 0.000000 0.000000 1.000000
vn 0.000000 0.000000 1.000000
vn 0.000000 0.000000 1.000000
vn 0.000000 0.000000 1.000000
vn -1.000000 0.000000 0.000000
vn -1.000000 0.000000 0.000000
vn -1.000000 0.000000 0.000000
vn -1.000000 0.000000 0.000000
vn 1.000000 0.000000 0.000000
vn 1.000000 0.000000 0.000000
vn 1.000000 0.000000 0.000000
vn 1.000000 0.000000 0.000000
vn 0.000000 0.000000 -1.000000
vn 0.000000 0.000000 -1.000000
vn 0.000000 0.000000 -1.000000
vn 0.000000 0.000000 -1.000000
vn 0.000000 0.000000 1.000000
vn 0.000000 0.000000 1.000000
vn 0.000000 0.000000 1.000000
vn 0.000000 0.000000 1.000000
vn -1.000000 0.000000 0.000000
vn -1.000000 0.000000 0.000000
vn -1.000000 0.000000 0.000000
vn -1.000000 0.000000 0.000000
vn 1.000000 0.000000 0.000000
vn 1.000000 0.000000 0.000000
vn 1.000000 0.000000 0.000000
vn 1.000000 0.000000 0.000000
vn 0.000000 0.000000 -1.000000
vn 0.000000 0.000000 -1.000000
vn 0.000000 0.000000 -1.000000
vn 0.000000 0.000000 -1.000000
s off
g pPlane3
usemtl initialShadingGroup
f 10/10/1 9/9/2 11/11/3 12/12/4
f 5/5/5 3/3/6 4/4/7 6/6/8
f 14/14/9 13/13/10 15/15/11 16/16/12
f 9/9/13 1/1/14 2/2/15 11/11/16
f 3/3/17 1/1/18 9/9/19 10/10/20
f 2/2/21 4/4/22 12/12/23 11/11/24
f 10/10/25 12/12/26 4/4/27 3/3/28
f 13/13/29 5/5/30 6/6/31 15/15/32
f 7/7/33 5/5/34 13/13/35 14/14/36
f 6/6/37 8/8/38 16/16/39 15/15/40
f 14/14/41 16/16/42 8/8/43 7/7/44
