# This file uses centimeters as units for non-parametric coordinates.

mtllib ThreeWall.mtl
g default
v -25.000000 0.000000 25.000000
v 25.000000 0.000000 25.000000
v -25.000000 0.000000 20.000000
v 20.000000 0.000000 20.000000
v -25.000000 0.000000 -20.000000
v 20.000000 0.000000 -20.000000
v 25.000000 0.000000 -25.000000
v -25.000000 0.000000 -25.000000
v -25.000000 30.000000 25.000000
v -25.000000 30.000000 20.000000
v 25.000000 30.000000 25.000000
v 20.000000 30.000000 20.000000
v 25.000000 30.000000 -25.000000
v 20.000000 30.000000 -20.000000
v -25.000000 30.000000 -20.000000
v -25.000000 30.000000 -25.000000
vt 0.000000 0.000000
vt 0.999996 0.000009
vt 0.000000 0.100000
vt 0.900000 0.100000
vt 0.000000 0.900000
vt 0.900000 0.900000
vt 0.999991 0.999996
vt 0.000000 1.000000
vt 0.000000 0.000000
vt 0.000000 0.100000
vt 0.999994 0.000008
vt 0.900000 0.100000
vt 0.999992 0.999994
vt 0.900000 0.900000
vt 0.000000 0.900000
vt 0.000000 1.000000
vn 0.000000 1.000000 0.000000
vn 0.000000 1.000000 0.000000
vn 0.000000 1.000000 0.000000
vn 0.000000 1.000000 0.000000
vn 0.000000 1.000000 0.000000
vn 0.000000 1.000000 0.000000
vn 0.000000 1.000000 0.000000
vn 0.000000 1.000000 0.000000
vn 0.000000 1.000000 0.000000
vn 0.000000 1.000000 0.000000
vn 0.000000 1.000000 0.000000
vn 0.000000 1.000000 0.000000
vn 0.000000 1.000000 0.000000
vn 0.000000 1.000000 0.000000
vn 0.000000 1.000000 0.000000
vn 0.000000 1.000000 0.000000
vn 0.000000 0.000000 1.000000
vn 0.000000 0.000000 1.000000
vn 0.000000 0.000000 1.000000
vn 0.000000 0.000000 1.000000
vn -1.000000 0.000000 0.000000
vn -1.000000 0.000000 0.000000
vn -1.000000 0.000000 0.000000
vn -1.000000 0.000000 0.000000
vn 0.000000 0.000000 -1.000000
vn 0.000000 0.000000 -1.000000
vn 0.000000 0.000000 -1.000000
vn 0.000000 0.000000 -1.000000
vn 1.000000 0.000000 0.000000
vn 1.000000 0.000000 0.000000
vn 1.000000 0.000000 0.000000
vn 1.000000 0.000000 0.000000
vn -1.000000 0.000000 0.000000
vn -1.000000 0.000000 0.000000
vn -1.000000 0.000000 0.000000
vn -1.000000 0.000000 0.000000
vn 0.000000 0.000000 1.000000
vn 0.000000 0.000000 1.000000
vn 0.000000 0.000000 1.000000
vn 0.000000 0.000000 1.000000
vn -1.000000 0.000000 0.000000
vn -1.000000 0.000000 0.000000
vn -1.000000 0.000000 0.000000
vn -1.000000 0.000000 0.000000
vn 0.000000 0.000000 -1.000000
vn 0.000000 0.000000 -1.000000
vn 0.000000 0.000000 -1.000000
vn 0.000000 0.000000 -1.000000
s off
g pPlane5
usemtl initialShadingGroup
f 10/10/1 9/9/2 11/11/3 12/12/4
f 5/5/5 3/3/6 4/4/7 6/6/8
f 11/11/9 13/13/10 14/14/11 12/12/12
f 16/16/13 15/15/14 14/14/15 13/13/16
f 9/9/17 1/1/18 2/2/19 11/11/20
f 3/3/21 1/1/22 9/9/23 10/10/24
f 10/10/25 12/12/26 4/4/27 3/3/28
f 2/2/29 7/7/30 13/13/31 11/11/32
f 6/6/33 4/4/34 12/12/35 14/14/36
f 15/15/37 5/5/38 6/6/39 14/14/40
f 8/8/41 5/5/42 15/15/43 16/16/44
f 16/16/45 13/13/46 7/7/47 8/8/48
